<?xml version="1.0" encoding="UTF-8" standalone="no"?>
<!-- Created with Inkscape (http://www.inkscape.org/) -->

<svg
        xmlns:dc="http://purl.org/dc/elements/1.1/"
        xmlns:cc="http://creativecommons.org/ns#"
        xmlns:rdf="http://www.w3.org/1999/02/22-rdf-syntax-ns#"
        xmlns:svg="http://www.w3.org/2000/svg"
        xmlns="http://www.w3.org/2000/svg"
        xmlns:sodipodi="http://sodipodi.sourceforge.net/DTD/sodipodi-0.dtd"
        xmlns:inkscape="http://www.inkscape.org/namespaces/inkscape"
        id="svg3348"
        version="1.1"
        inkscape:version="0.91 r13725"
        width="409.422"
        height="75.321831"
        viewBox="0 0 409.42199 75.321829"
        sodipodi:docname="99LOGO22.svg">
  <metadata
          id="metadata3354">
    <rdf:RDF>
      <cc:Work
              rdf:about="">
        <dc:format>image/svg+xml</dc:format>
        <dc:type
                rdf:resource="http://purl.org/dc/dcmitype/StillImage" />
        <dc:title></dc:title>
      </cc:Work>
    </rdf:RDF>
  </metadata>
  <defs
          id="defs3352" />
  <sodipodi:namedview
          pagecolor="#ffffff"
          bordercolor="#666666"
          borderopacity="1"
          objecttolerance="10"
          gridtolerance="10"
          guidetolerance="10"
          inkscape:pageopacity="0"
          inkscape:pageshadow="2"
          inkscape:window-width="1287"
          inkscape:window-height="693"
          id="namedview3350"
          showgrid="false"
          showborder="true"
          inkscape:zoom="0.96276114"
          inkscape:cx="203.58396"
          inkscape:cy="39.344467"
          inkscape:window-x="0"
          inkscape:window-y="0"
          inkscape:window-maximized="0"
          inkscape:current-layer="svg3348"
          inkscape:showpageshadow="false"
          fit-margin-top="0"
          fit-margin-left="0"
          fit-margin-right="0"
          fit-margin-bottom="0" />
  <path
          style="fill:#000000"
          d="m 241.79999,75.050273 c 0,-0.69549 3.91551,-9.511539 4.25493,-9.58026 0.32273,-0.06534 2.12228,3.856425 4.39507,9.578241 0.055,0.138462 -0.17008,0.251751 -0.50018,0.251751 -0.43573,0 -0.7427,-0.373164 -1.12027,-1.361805 l -0.52008,-1.361805 -2.25279,0.0868 -2.2528,0.0868 -0.46393,1.275 c -0.31059,0.85356 -0.64177,1.275 -1.00194,1.275 -0.2959,0 -0.53801,-0.11238 -0.53801,-0.249732 z m 5.84172,-3.976386 c -0.1093,-0.344364 -0.51005,-1.323114 -0.89055,-2.175 l -0.69183,-1.548882 -0.63094,1.452837 c -0.34701,0.799059 -0.7125,1.777809 -0.81219,2.175 -0.17552,0.699351 -0.12746,0.722163 1.52149,0.722163 1.58989,0 1.68957,-0.0415 1.50402,-0.626118 z m 5.25828,-0.723882 0,-4.95 2.35564,0 c 1.94902,0 2.52683,0.116514 3.34741,0.675 2.32407,1.581744 2.99385,4.091154 1.74156,6.525 -0.9555,1.857054 -2.64395,2.7 -5.40817,2.7 l -2.03644,0 0,-4.95 z m 4.48961,3.658068 c 1.46234,-0.503661 2.41039,-2.020641 2.41039,-3.856839 0,-1.239846 -0.15257,-1.626528 -1.01168,-2.563977 -0.93476,-1.020003 -1.16285,-1.113561 -3,-1.230543 l -1.98832,-0.126606 0,3.884949 c 0,2.13672 0.09,3.974949 0.2,4.084947 0.31256,0.312555 2.24211,0.203295 3.38961,-0.191931 z m 7.28774,-3.133068 c -2.47524,-5.917929 -2.34023,-5.475 -1.66888,-5.475 0.45241,0 0.90864,0.820974 2.17258,3.909522 0.87995,2.150235 1.63368,3.871485 1.67496,3.825 0.0413,-0.04649 0.78028,-1.805772 1.64221,-3.909522 1.26163,-3.079284 1.68264,-3.825 2.15947,-3.825 0.32577,0 0.54731,0.113289 0.49231,0.251751 -1.89033,4.758957 -4.07406,9.64557 -4.31092,9.646728 -0.17101,9e-4 -1.14379,-1.989729 -2.16173,-4.423479 z m 9.22265,-0.525 0,-4.95 3.15,0 c 2.6,0 3.15,0.07857 3.15,0.45 0,0.366666 -0.5,0.45 -2.7,0.45 l -2.7,0 0,1.637868 0,1.637868 2.475,0.08713 c 1.96128,0.06905 2.475,0.180537 2.475,0.537132 0,0.356832 -0.51545,0.46809 -2.4896,0.537369 l -2.4896,0.08737 0.0896,1.712631 0.0896,1.712631 2.625,0.08668 c 2.0627,0.06811 2.625,0.180573 2.625,0.525 0,0.356598 -0.5873,0.438321 -3.15,0.438321 l -3.15,0 0,-4.95 z m 8.7,0 0,-4.95 2.27966,0 c 3.65356,0 5.09527,1.061817 5.02606,3.701673 -0.0264,1.009548 -0.21996,1.397763 -1.06692,2.140752 l -1.03458,0.907575 1.14708,1.5 c 0.96468,1.261515 1.06422,1.517622 0.62601,1.610838 -0.30951,0.06584 -0.76587,-0.225081 -1.12416,-0.71664 -1.50537,-2.065284 -1.50303,-2.063751 -3.18958,-2.079312 l -1.61357,-0.01489 -0.0914,1.425 c -0.0642,1.000476 -0.22061,1.425 -0.525,1.425 -0.36057,0 -0.43357,-0.833406 -0.43357,-4.95 z m 5.07855,0.611097 c 0.91332,-0.472293 1.22145,-1.004874 1.22145,-2.111097 0,-1.752303 -1.16841,-2.55 -3.7351,-2.55 l -1.6649,0 0,2.55 0,2.55 1.6649,0 c 0.91569,0 2.04682,-0.197508 2.51365,-0.438903 z m 7.22145,-0.161097 0,-4.5 -1.65,0 c -1.26666,0 -1.65,-0.104544 -1.65,-0.45 0,-0.375 0.6,-0.45 3.6,-0.45 3,0 3.6,0.075 3.6,0.45 0,0.339999 -0.36666,0.45 -1.5,0.45 l -1.5,0 0,4.5 c 0,3.800001 -0.07,4.5 -0.45,4.5 -0.38001,0 -0.45,-0.699999 -0.45,-4.5 z m 6.3,4.05 c 0,-0.249999 0.26667,-0.45 0.6,-0.45 0.57036,0 0.6,-0.200001 0.6,-4.05 0,-3.849999 -0.0297,-4.05 -0.6,-4.05 -0.33333,0 -0.6,-0.200001 -0.6,-0.45 0,-0.350001 0.39999,-0.45 1.8,-0.45 1.40001,0 1.8,0.1 1.8,0.45 0,0.249999 -0.26667,0.45 -0.6,0.45 -0.57036,0 -0.6,0.200001 -0.6,4.05 0,3.849999 0.0297,4.05 0.6,4.05 0.33333,0 0.6,0.200001 0.6,0.45 0,0.350001 -0.39999,0.45 -1.8,0.45 -1.40001,0 -1.8,-0.1 -1.8,-0.45 z m 7.46154,-0.15168 c -1.10604,-0.584454 -1.61127,-1.313355 -1.28085,-1.847955 0.1056,-0.170889 0.4539,-0.0414 0.82596,0.307089 2.1294,1.99446 5.76318,1.366449 5.53476,-0.95655 -0.10227,-1.040058 -1.01469,-1.511157 -3.57252,-1.844505 -1.77096,-0.230805 -2.66889,-1.04895 -2.66889,-2.431722 0,-2.015469 2.36037,-3.291048 4.75971,-2.572197 1.58457,0.474753 2.27886,1.053672 2.03277,1.694973 -0.19248,0.501621 -0.23904,0.503391 -0.76326,0.02901 -0.30705,-0.277872 -1.04019,-0.638289 -1.62921,-0.800928 -2.11851,-0.584943 -4.2477,1.101051 -3.05493,2.419029 0.30144,0.333108 1.2924,0.6885 2.50203,0.897327 2.44107,0.421416 3.2382,0.90306 3.50502,2.117769 0.6222,2.832846 -3.09204,4.625997 -6.19059,2.988672 z m 8.73846,0.15168 c 0,-0.249999 0.26667,-0.45 0.6,-0.45 0.57036,0 0.6,-0.200001 0.6,-4.05 0,-3.849999 -0.0297,-4.05 -0.6,-4.05 -0.33333,0 -0.6,-0.200001 -0.6,-0.45 0,-0.350001 0.39999,-0.45 1.8,-0.45 1.40001,0 1.8,0.1 1.8,0.45 0,0.249999 -0.26667,0.45 -0.6,0.45 -0.57036,0 -0.6,0.200001 -0.6,4.05 0,3.849999 0.0297,4.05 0.6,4.05 0.33333,0 0.6,0.200001 0.6,0.45 0,0.350001 -0.39999,0.45 -1.8,0.45 -1.40001,0 -1.8,-0.1 -1.8,-0.45 z m 6.6,-4.5 c 0,-3.822858 0.0875,-4.95 0.38415,-4.95 0.21129,0 1.66254,1.715091 3.225,3.811314 l 2.84085,3.811317 0.084,-3.811317 c 0.0686,-3.115335 0.16449,-3.811314 0.525,-3.811314 0.37023,0 0.44103,0.794709 0.44103,4.95 0,2.7225 -0.10536,4.95 -0.23415,4.95 -0.12879,0 -1.51254,-1.715091 -3.075,-3.811314 l -2.84085,-3.811317 -0.084,3.811317 c -0.0785,3.563637 -0.12237,3.811314 -0.675,3.811314 -0.56415,0 -0.59103,-0.225021 -0.59103,-4.95 z m 13.33512,4.544646 c -2.14413,-0.972894 -3.42975,-3.686334 -2.81979,-5.951526 0.88971,-3.304167 4.73538,-4.760778 7.73652,-2.930331 0.81144,0.494907 0.9345,0.692163 0.64761,1.037862 -0.30204,0.363921 -0.48153,0.332694 -1.21815,-0.211917 -1.07583,-0.795378 -3.20298,-0.855636 -4.32198,-0.122433 -4.12047,2.699844 -0.98502,9.164877 3.52995,7.278405 1.05027,-0.438834 1.11072,-0.538395 1.11072,-1.829397 l 0,-1.365309 -1.35,0 c -0.99999,0 -1.35,-0.116667 -1.35,-0.45 0,-0.354168 0.4182,-0.45 1.96371,-0.45 l 1.96371,0 -0.0887,1.994157 c -0.0786,1.767747 -0.18096,2.062866 -0.90126,2.599287 -1.02459,0.763023 -3.63423,0.976593 -4.90233,0.401202 z m 12.76488,0.155622 c 0,-0.69549 3.91551,-9.511539 4.25493,-9.58026 0.32271,-0.06534 2.12226,3.856425 4.39506,9.578241 0.055,0.138462 -0.17007,0.251751 -0.50019,0.251751 -0.43572,0 -0.74268,-0.373164 -1.12026,-1.361805 l -0.52008,-1.361805 -2.25279,0.0868 -2.25279,0.0868 -0.46395,1.275 c -0.31056,0.85356 -0.64176,1.275 -1.00194,1.275 -0.29589,0 -0.53799,-0.11238 -0.53799,-0.249732 z m 5.84172,-3.976386 c -0.10932,-0.344364 -0.51006,-1.323114 -0.89055,-2.175 l -0.69183,-1.548882 -0.63093,1.452837 c -0.34704,0.799059 -0.71253,1.777809 -0.81219,2.175 -0.17553,0.699351 -0.12747,0.722163 1.52148,0.722163 1.58988,0 1.68957,-0.0415 1.50402,-0.626118 z m 6.8934,3.820764 c -2.14413,-0.972894 -3.42975,-3.686334 -2.81979,-5.951526 0.88971,-3.304167 4.73538,-4.760778 7.73652,-2.930331 0.81144,0.494907 0.9345,0.692163 0.64761,1.037862 -0.30204,0.363921 -0.48153,0.332694 -1.21815,-0.211917 -1.07583,-0.795378 -3.20298,-0.855636 -4.32198,-0.122433 -4.12047,2.699844 -0.98502,9.164877 3.52995,7.278405 1.05027,-0.438834 1.11072,-0.538395 1.11072,-1.829397 l 0,-1.365309 -1.35,0 c -0.99999,0 -1.35,-0.116667 -1.35,-0.45 0,-0.354168 0.4182,-0.45 1.96371,-0.45 l 1.96371,0 -0.0887,1.994157 c -0.0786,1.767747 -0.18096,2.062866 -0.90126,2.599287 -1.02459,0.763023 -3.63423,0.976593 -4.90233,0.401202 z m 9.16488,-4.544646 0,-4.95 3.15,0 c 2.60001,0 3.15,0.07857 3.15,0.45 0,0.366666 -0.50001,0.45 -2.7,0.45 l -2.7,0 0,1.637868 0,1.637868 2.475,0.08713 c 1.96128,0.06905 2.475,0.180537 2.475,0.537132 0,0.356832 -0.51546,0.46809 -2.48961,0.537369 l -2.48958,0.08737 0.0896,1.712631 0.0896,1.712631 2.625,0.08668 c 2.06268,0.06811 2.625,0.180573 2.625,0.525 0,0.356598 -0.58731,0.438321 -3.15,0.438321 l -3.15,0 0,-4.95 z m 8.4,0 c 0,-3.822858 0.0875,-4.95 0.38415,-4.95 0.21129,0 1.66254,1.715091 3.225,3.811314 l 2.84085,3.811317 0.084,-3.811317 c 0.0686,-3.115335 0.16449,-3.811314 0.525,-3.811314 0.37023,0 0.44103,0.794709 0.44103,4.95 0,2.7225 -0.10536,4.95 -0.23415,4.95 -0.12879,0 -1.51254,-1.715091 -3.075,-3.811314 l -2.84085,-3.811317 -0.084,3.811317 c -0.0785,3.563637 -0.12237,3.811314 -0.675,3.811314 -0.56415,0 -0.59103,-0.225021 -0.59103,-4.95 z m 13.03512,4.52802 c -2.13042,-0.927954 -3.43095,-3.665229 -2.81979,-5.9349 0.88971,-3.304167 4.73538,-4.760778 7.73652,-2.930331 0.81144,0.494907 0.9345,0.692163 0.64761,1.037862 -0.30204,0.363921 -0.48153,0.332694 -1.21815,-0.211917 -1.07583,-0.795378 -3.20298,-0.855636 -4.32198,-0.122433 -1.08813,0.712959 -1.95687,2.238378 -1.95822,3.43836 -0.004,3.170934 3.2646,5.209857 5.87862,3.667551 1.27686,-0.753369 2.25954,-0.642717 1.57905,0.17781 -1.00635,1.213473 -3.75162,1.649844 -5.52366,0.877998 z m 11.26488,-1.353576 c 0,-1.631358 -0.14619,-2.023164 -1.8,-4.824444 -0.99,-1.676889 -1.8,-3.10539 -1.8,-3.174444 0,-0.06906 0.25716,-0.125556 0.5715,-0.125556 0.39711,0 1.0008,0.732318 1.9785,2.4 0.77385,1.32 1.51098,2.4 1.63803,2.4 0.12705,0 0.85851,-1.08 1.62549,-2.4 1.02459,-1.763406 1.55727,-2.4 2.0082,-2.4 0.33753,0 0.55689,0.10125 0.48744,0.225 -0.0694,0.12375 -0.8874,1.52787 -1.8177,3.120264 -1.55394,2.659851 -1.69146,3.04404 -1.69146,4.725 0,1.629735 -0.0656,1.829736 -0.6,1.829736 -0.53241,0 -0.6,-0.200001 -0.6,-1.775556 z M 12.731605,73.178717 C 12.203551,73.025468 10.896598,71.966879 9.656605,70.688069 7.636456,68.60468 7.5,68.379359 7.5,67.126991 7.5,66.121088 7.715281,65.500307 8.369398,64.620017 8.847568,63.976511 23.461316,49.248989 40.844399,31.892189 62.461276,10.30799 72.711355,0.2711 73.276969,0.13417 c 1.684203,-0.40773 2.69796,0.0751 4.979142,2.37165 2.452524,2.46901 2.942841,3.77957 2.046603,5.47036 -0.667635,1.25952 -64.762017,65.223825 -65.356466,65.223825 -0.273447,0 -0.676967,0.05518 -0.896713,0.122622 -0.219744,0.06744 -0.812813,0.0027 -1.31793,-0.14391 z m 45.299997,0 c -0.528051,-0.153249 -1.835007,-1.211838 -3.075,-2.490648 -2.020149,-2.083389 -2.156604,-2.30871 -2.156604,-3.561078 0,-1.004985 0.215535,-1.627485 0.868017,-2.506974 0.477411,-0.643506 10.028661,-10.30671 21.225,-21.473784 21.598567,-21.542113 20.820927,-20.857764 23.046437,-20.281467 1.10232,0.285447 4.575418,3.636759 5.151858,4.97121 0.94081,2.177952 1.51631,1.520595 -21.264674,24.289029 -11.597643,11.59125 -21.309585,21.075 -21.582093,21.075 -0.272511,0 -0.675264,0.05518 -0.895008,0.122622 -0.219747,0.06744 -0.812814,0.0027 -1.317933,-0.14391 z M 116.7,36.72854 l 0,-18.77147 8.175,0.105 c 7.68693,0.0987 8.27792,0.14604 9.89899,0.79264 2.27395,0.90701 4.76723,3.20833 5.83773,5.388268 0.75609,1.539672 0.83828,2.015847 0.83828,4.857027 0,2.832471 -0.0835,3.320091 -0.82865,4.837362 -1.02588,2.088963 -3.29399,4.251807 -5.55593,5.298072 -1.60095,0.740517 -2.06077,0.801447 -6.89042,0.913044 L 123,40.26806 l 0,-1.684026 0,-1.684029 3.86555,0 c 4.63626,0 6.34164,-0.45255 8.34256,-2.213823 1.8031,-1.587153 2.47871,-3.109758 2.47871,-5.586177 0,-3.203763 -1.47005,-5.497953 -4.47041,-6.976599 -1.2427,-0.612436 -1.87569,-0.681836 -6.99141,-0.766586 l -5.625,-0.0932 0,17.118185 0,17.118183 -1.95,0 -1.95,0 0,-18.771465 z m 41.0589,10.391166 -6.1911,-8.331906 3.1911,-0.185082 c 3.83286,-0.222306 5.881,-0.787362 7.59643,-2.095764 1.91347,-1.459449 2.97937,-3.378594 3.1657,-5.699775 0.28961,-3.607953 -1.39307,-6.615483 -4.57126,-8.170428 C 159.0134,21.68937 155.68549,21.33341 148.575,21.31308 l -4.575,-0.0131 0,-1.686 0,-1.686 7.575,0.14441 c 6.61109,0.12604 7.81979,0.22398 9.49876,0.76972 2.69651,0.87649 4.89244,2.4821 6.3215,4.622132 1.51664,2.271195 1.92636,3.685218 1.93722,6.685743 0.0219,6.063378 -3.52933,10.06443 -10.1158,11.397006 -0.82315,0.166542 -0.77107,0.250512 4.275,6.892053 2.80957,3.697902 5.10832,6.799392 5.10832,6.8922 0,0.09281 -1.04625,0.157854 -2.325,0.144546 l -2.325,-0.02421 -6.1911,-8.331909 z M 187.8,55.29275 c -2.69772,-0.45159 -6.80051,-2.381676 -9.09741,-4.279719 -8.51838,-7.039179 -9.08095,-19.692639 -1.2206,-27.454086 C 183.42627,17.68946 192.10275,16.36068 199.8,20.141 c 4.3542,2.138466 8.01997,6.332796 9.56461,10.943736 3.40286,10.157916 -3.45102,21.713373 -14.21461,23.965464 -1.95875,0.409833 -5.62745,0.530898 -7.35,0.24255 z m 8.25,-4.013394 c 6.35301,-2.360751 10.35,-7.971723 10.35,-14.529351 0,-4.252416 -1.34695,-7.517568 -4.41002,-10.69035 -6.09195,-6.310165 -15.43999,-6.421925 -21.71709,-0.25965 -3.94202,3.869922 -5.61953,9.523482 -4.31354,14.537535 1.42006,5.451945 6.01034,10.032534 11.43087,11.406702 2.41827,0.613065 6.32301,0.403443 8.65978,-0.464886 z m 16.04999,2.649039 0,-1.632315 7.28213,-0.192951 c 8.2209,-0.217827 10.82026,-0.671064 13.67031,-2.383626 3.94345,-2.369574 6.47278,-6.825813 6.85056,-12.069498 0.31849,-4.420692 -1.17519,-8.366001 -4.3811,-11.5719 -3.65946,-3.659469 -6.14727,-4.365585 -16.4469,-4.668135 l -6.975,-0.20488 0,-1.63484 0,-1.63483 7.875,0.14128 c 8.74936,0.15697 9.82743,0.33178 13.725,2.22559 3.1062,1.509278 6.38844,4.791524 7.89772,7.897715 1.47134,3.028104 2.00228,5.2953 2.00228,8.55 0,3.2547 -0.53094,5.521896 -2.00228,8.55 -1.52707,3.142803 -4.80698,6.414036 -7.89772,7.876827 -3.7824,1.790142 -5.79623,2.110575 -14.175,2.255475 l -7.425,0.128403 0,-1.632315 z m 42.90728,1.090683 c -0.9035,-0.242793 -2.19065,-0.762543 -2.86032,-1.155 -1.53951,-0.902208 -3.80164,-3.307119 -4.6204,-4.912017 -1.39625,-2.736876 -1.5174,-4.167753 -1.52212,-17.977056 L 246.00043,18 l 1.8,0 1.8,0 0.002,12.075005 c 0.001,6.857196 0.13609,12.899724 0.31196,13.98357 0.57127,3.520605 2.34294,5.985393 5.23578,7.284108 1.39974,0.628404 2.01632,0.681939 9.225,0.800943 l 7.725,0.12753 0,-15.485574 0,-15.485582 -4.65,0 -4.65,0 0,-1.65 0,-1.65 6.3,0 6.3,0 0,18.750005 0,18.75 -9.375,-0.01974 c -7.25826,-0.0153 -9.74591,-0.119415 -11.01773,-0.461184 z m 38.43136,0.163335 c -5.57127,-0.99555 -11.13513,-5.184231 -13.65178,-10.277532 -4.20929,-8.518953 -1.22293,-19.044249 6.8179,-24.029331 3.16494,-1.96217 5.42328,-2.63867 9.34524,-2.79941 2.39076,-0.098 3.86835,-0.002 5.36271,0.34874 4.22364,0.991 9.13017,4.313529 11.25123,7.618923 0.51483,0.802302 0.93606,1.548162 0.93606,1.657467 0,0.109305 -0.88212,0.198735 -1.96026,0.198735 l -1.96026,0 -1.78038,-1.903203 C 304.85948,22.854341 301.21487,21.3 296.78609,21.3 c -6.74595,0 -12.66121,4.65221 -14.64273,11.516123 -0.37467,1.297869 -0.4787,2.541663 -0.39236,4.691283 0.10906,2.715312 0.20706,3.105144 1.366,5.433882 3.2883,6.607389 10.02517,10.217646 16.51246,8.848956 2.97144,-0.62691 5.52315,-2.054082 7.98366,-4.465239 l 2.06646,-2.025 1.91019,0 c 1.05063,0 1.91022,0.12015 1.91022,0.266997 0,0.559791 -2.6697,3.859959 -4.21869,5.21499 -1.86183,1.628685 -4.79751,3.242919 -7.18131,3.94878 -2.03928,0.603843 -6.50616,0.836766 -8.66136,0.451641 z m 21.86136,-1.332408 0,-1.65 4.5,0 4.5,0 0,-15.45 0,-15.450005 -4.5,0 -4.5,0 0,-1.65 0,-1.65 10.95,0 10.95,0 0,1.65 0,1.65 -4.5,0 -4.5,0 0,15.450005 0,15.45 4.5,0 4.5,0 0,1.65 0,1.65 -10.95,0 -10.95,0 0,-1.65 z m 39.3,1.442745 c -2.69772,-0.45159 -6.80052,-2.381676 -9.09741,-4.279719 -8.51838,-7.039179 -9.08094,-19.692639 -1.22061,-27.454086 5.94429,-5.869485 14.62077,-7.198265 22.31802,-3.417945 4.3542,2.138466 8.01996,6.332796 9.56463,10.943736 3.40284,10.157916 -3.45102,21.713373 -14.21463,23.965464 -1.95876,0.409833 -5.62743,0.530898 -7.35,0.24255 z m 8.25,-4.013394 c 6.35301,-2.360751 10.35,-7.971723 10.35,-14.529351 0,-4.252416 -1.34694,-7.517568 -4.41,-10.69035 -6.09195,-6.310165 -15.44001,-6.421925 -21.71709,-0.25965 -3.94203,3.869922 -5.61954,9.523482 -4.31355,14.537535 1.42005,5.451945 6.01035,10.032534 11.43087,11.406702 2.41827,0.613065 6.32301,0.403443 8.65977,-0.464886 z m 16.35,-14.529351 0,-18.750005 2.48235,0 2.48238,0 10.31781,15.313313 c 5.6748,8.42232 10.4316,15.383631 10.57068,15.469584 0.13908,0.08595 0.21774,-6.028788 0.17481,-13.588308 l -0.078,-13.744589 -4.425,-0.083 -4.425,-0.083 0,-1.64197 0,-1.64198 6.3,0 6.3,0 0,18.749996 0,18.75 -1.89915,0 -1.89915,0 -10.74282,-15.975 c -5.90856,-8.78625 -10.92645,-16.172679 -11.15085,-16.414287 -0.34443,-0.370797 -0.40803,2.119857 -0.40803,15.975 l 0,16.414287 -1.8,0 -1.8,0 0,-18.75 z M 16.349999,46.677989 c -0.495,-0.219192 -1.733423,-1.271469 -2.752051,-2.338392 -2.024297,-2.120274 -2.545978,-3.47511 -1.920002,-4.986351 0.451958,-1.091121 26.956242,-27.526426 27.873135,-27.800596 1.493739,-0.44665 2.784246,0.12514 4.906404,2.17391 2.184252,2.10872 2.889174,3.53119 2.513115,5.07127 -0.142731,0.58452 -4.371645,5.028151 -13.464345,14.147971 -7.290939,7.312689 -13.620801,13.488939 -14.066358,13.725 -0.994872,0.527097 -1.910976,0.52923 -3.089898,0.0072 z m 44.999999,0 c -0.495,-0.219192 -1.733424,-1.271469 -2.75205,-2.338392 -2.024298,-2.120274 -2.54598,-3.47511 -1.920003,-4.986351 0.451956,-1.091121 26.956237,-27.526426 27.873137,-27.800596 1.49374,-0.44665 2.78425,0.12514 4.9064,2.17391 2.18426,2.10872 2.88918,3.53119 2.51312,5.07127 -0.14273,0.58452 -4.37165,5.028151 -13.464348,14.147971 -7.290939,7.312689 -13.620801,13.488939 -14.066358,13.725 -0.994872,0.527097 -1.910976,0.52923 -3.089898,0.0072 z M 4.65,34.857281 C 4.155,34.54145 2.90625,33.398546 1.875,32.31749 0.105713,30.462755 0,30.270338 0,28.904621 L 0,27.457301 13.728648,13.72865 27.457295,0 28.933193,0 c 1.441134,0 1.530597,0.0548 3.798231,2.325 2.374812,2.37755 2.886492,3.34728 2.532705,4.8 C 35.130053,7.67556 30.547481,12.47277 21.488432,21.54593 8.875136,34.17887 7.829941,35.152115 6.731824,35.286686 5.889766,35.38988 5.291256,35.266436 4.65,34.857281 Z"
          id="path3358"
          inkscape:connector-curvature="0" />
</svg>