<?xml version="1.0" encoding="UTF-8"?>
<svg width="144.5mm" height="144.5mm" version="1.1" viewBox="0 0 511.99202 511.99998" xmlns="http://www.w3.org/2000/svg" xmlns:cc="http://creativecommons.org/ns#" xmlns:dc="http://purl.org/dc/elements/1.1/" xmlns:rdf="http://www.w3.org/1999/02/22-rdf-syntax-ns#">
  <metadata>
    <rdf:RDF>
      <cc:Work rdf:about="">
        <dc:format>image/svg+xml</dc:format>
        <dc:type rdf:resource="http://purl.org/dc/dcmitype/StillImage"/>
        <dc:title/>
      </cc:Work>
    </rdf:RDF>
  </metadata>
  <g transform="translate(58.375 -1689.7)">
    <path d="m52.621 1945.7v-256h145 145v256 256h-145-145v-256zm273 196.5v-42.5h-128-128v42.5 42.5h128 128v-42.5zm-137.8 32.425c-5.2807-1.6145-12.879-6.737-16.185-10.912-14.326-18.088-8.3934-43.112 12.482-52.645 12.02-5.4891 27.299-2.8182 36.808 6.4342 17.069 16.609 12.59 44.654-8.8053 55.14-5.599 2.7439-18.395 3.788-24.299 1.9828zm19.642-18.81c1.764-1.256 4.097-4.0279 5.1846-6.1597 3.8595-7.5652 1.8439-15.623-5.3449-21.368-3.2823-2.623-4.6493-3.0545-9.6778-3.0545s-6.3954 0.4315-9.6778 3.0545c-7.1888 5.7447-9.2043 13.803-5.3449 21.368 1.8275 3.5822 5.3755 6.876 9.0226 8.3763 3.3452 1.376 12.614 0.079 15.838-2.2166zm118.16-235.62v-162.5h-128-128v162.5 162.5h128 128v-162.5zm0-196.5v-17h-128-128v17 17h128 128v-17zm-165.72 7.5552c-5.0529-2.2463-6.0692-8.9365-2.0211-13.305 2.0324-2.1934 2.6044-2.25 22.736-2.25 20.294 0 20.689 0.04 22.826 2.3145 3.0976 3.2972 2.9142 8.6411-0.40368 11.761-2.5166 2.3665-3.0229 2.4301-21.25 2.6666-14.439 0.1873-19.401-0.082-21.887-1.1871zm59.958-0.049c-5.6082-2.4373-6.6328-9.201-2.0417-13.478 1.7924-1.6699 3.524-2.0277 9.8136-2.0277 6.6356 0 7.9105 0.2951 9.722 2.25 2.4257 2.6178 2.9619 5.1352 1.931 9.0659-1.3385 5.1037-12.021 7.4079-19.425 4.19zm-249.77 136.33c-8.3553-7.3361-19.189-24.904-23.334-37.839-2.8021-8.7438-5.1361-22.79-5.1312-30.881 0.0147-24.189 10.339-50.411 26.327-66.869 4.2957-4.4219 5.6697-5.25 8.7101-5.25 4.7173 0 7.9585 3.3137 7.9585 8.1364 0 2.8529-1.1221 4.8006-6.0122 10.436-7.1677 8.2595-14.041 21.077-17.159 31.996-2.9338 10.276-3.1993 30.448-0.53051 40.311 3.8173 14.107 9.1377 24.322 18.317 35.167 6.2902 7.4316 7.0386 11.391 2.9299 15.5-3.4588 3.4588-7.6086 3.216-12.076-0.7066zm442.99 0.7066c-4.1088-4.1088-3.3604-8.0682 2.9298-15.5 9.1793-10.845 14.5-21.06 18.317-35.167 2.6771-9.8935 2.4036-30.032-0.5484-40.379-3.0572-10.716-10.056-23.709-17.254-32.034-4.8732-5.6358-5.8985-7.4556-5.8985-10.469 0-4.74 3.298-7.9963 8.0986-7.9963 2.8714 0 4.3492 0.9053 8.57 5.25 15.988 16.458 26.313 42.68 26.327 66.869 0.01 8.0907-2.3291 22.137-5.1312 30.881-4.1453 12.935-14.979 30.503-23.334 37.839-4.4676 3.9226-8.6174 4.1654-12.076 0.7066zm-36-17c-3.6713-3.6713-3.2956-8.203 1.1066-13.346 9.8837-11.547 14.439-23.407 14.439-37.595 0-15.018-4.1795-26.577-13.601-37.614-5.3862-6.3101-5.9134-10.682-1.753-14.538 5.4215-5.0245 11.553-1.9394 19.55 9.836 9.0537 13.332 12.758 25.587 12.787 42.302 0.031 18.104-6.5567 35.567-17.924 47.512-6.5247 6.8568-10.3 7.7469-14.604 3.443zm-369.19-1.5249c-3.9648-2.4174-11.177-12.049-15.234-20.346-12.906-26.39-7.9118-60.429 11.92-81.238 5.1095-5.3612 9.5658-6.0111 13.594-1.9828 3.9396 3.9396 3.3284 8.1413-2.1111 14.514-8.9419 10.476-13.483 22.627-13.52 36.177-0.0399 14.654 4.3579 26.634 14.028 38.214 5.875 7.0351 5.3584 13.056-1.3389 15.602-3.5707 1.3576-3.5687 1.3578-7.3376-0.9401z"/>
  </g>
</svg>
