<?xml version="1.0" encoding="iso-8859-1"?>
<!-- Generator: Adobe Illustrator 16.0.0, SVG Export Plug-In . SVG Version: 6.00 Build 0)  -->
<!DOCTYPE svg PUBLIC "-//W3C//DTD SVG 1.1//EN" "http://www.w3.org/Graphics/SVG/1.1/DTD/svg11.dtd">
<svg xmlns="http://www.w3.org/2000/svg" xmlns:xlink="http://www.w3.org/1999/xlink" version="1.1" id="Capa_1" x="0px" y="0px" width="512px" height="512px" viewBox="0 0 445.624 445.624" style="enable-background:new 0 0 445.624 445.624;" xml:space="preserve">
<g>
	<g>
		<path d="M443.554,216.856l-5.177-6.546c-0.9-1.142-22.499-28.264-59.505-55.451c-49.521-36.384-103.487-55.615-156.06-55.615    c-52.569,0-106.536,19.231-156.061,55.615c-36.994,27.179-58.603,54.307-59.5,55.445l-5.183,6.552    c-2.76,3.491-2.76,8.421,0,11.912l5.179,6.549c0.901,1.142,22.521,28.277,59.504,55.449    c49.523,36.383,103.49,55.614,156.061,55.614c52.572,0,106.538-19.231,156.061-55.614c37.017-27.197,58.603-54.308,59.498-55.443    l5.184-6.555C446.314,225.277,446.314,220.347,443.554,216.856z M222.812,317.812c-52.469,0-95-42.535-95-95    c0-52.466,42.531-95,95-95s95,42.534,95,95C317.812,275.277,275.281,317.812,222.812,317.812z" fill="#ffffff"/>
		<path d="M222.814,157.812c-35.897,0-65.002,29.102-65.002,65c0.001,35.897,29.104,65,64.999,65    c35.899,0,65.002-29.104,65.001-65.002C287.812,186.914,258.711,157.812,222.814,157.812z M272.472,222.811    c-0.001,27.379-22.276,49.658-49.659,49.66c-5.522,0-10-4.478-10-10c-0.001-2.763,1.118-5.263,2.929-7.072    c1.811-1.811,4.311-2.93,7.07-2.928c16.355-0.002,29.66-13.309,29.659-29.66c0-5.523,4.477-10,10-10    S272.471,217.288,272.472,222.811z" fill="#ffffff"/>
	</g>
</g>
<g>
</g>
<g>
</g>
<g>
</g>
<g>
</g>
<g>
</g>
<g>
</g>
<g>
</g>
<g>
</g>
<g>
</g>
<g>
</g>
<g>
</g>
<g>
</g>
<g>
</g>
<g>
</g>
<g>
</g>
</svg>
