<svg width="139.14mm" height="139.42mm" version="1.1" viewBox="0 0 492.99995 493.99997" xmlns="http://www.w3.org/2000/svg" xmlns:cc="http://creativecommons.org/ns#" xmlns:dc="http://purl.org/dc/elements/1.1/" xmlns:rdf="http://www.w3.org/1999/02/22-rdf-syntax-ns#">
  <metadata>
    <rdf:RDF>
      <cc:Work rdf:about="">
        <dc:format>image/svg+xml</dc:format>
        <dc:type rdf:resource="http://purl.org/dc/dcmitype/StillImage"/>
        <dc:title/>
      </cc:Work>
    </rdf:RDF>
  </metadata>
  <g transform="translate(271.55 -1874.4)">
    <path d="m-271.55 2121.4v-247h246.5 246.5v247 247h-246.5-246.5v-247zm481 0v-235h-234.5-234.5v235 235h234.5 234.5v-235zm-269 92.5v-87.5h-30-30v-28.985-28.985l29.75-0.2649 29.75-0.2649 0.60648-26c0.56661-24.291 0.78062-26.577 3.2555-34.784 9.5916-31.806 29.199-52.303 57.638-60.255 5.5488-1.5516 11.512-1.8749 40.75-2.2092l34.25-0.3916v31.028 31.028l-29.921 0.292-29.921 0.2921-2.6763 2.5c-1.472 1.375-3.6451 4.3-4.8291 6.5-2.0327 3.777-2.1527 5.338-2.1527 28v24l34.75 0.263 34.75 0.2629v28.987 28.987h-35-35v87.5 87.5h-33-33v-87.5z"/>
  </g>
</svg>
