<svg width="139.14mm" height="139.42mm" version="1.1" viewBox="0 0 492.99995 493.99997" xmlns="http://www.w3.org/2000/svg" xmlns:cc="http://creativecommons.org/ns#" xmlns:dc="http://purl.org/dc/elements/1.1/" xmlns:rdf="http://www.w3.org/1999/02/22-rdf-syntax-ns#">
  <metadata>
    <rdf:RDF>
      <cc:Work rdf:about="">
        <dc:format>image/svg+xml</dc:format>
        <dc:type rdf:resource="http://purl.org/dc/dcmitype/StillImage"/>
        <dc:title/>
      </cc:Work>
    </rdf:RDF>
  </metadata>
  <g transform="translate(-528.95 -1142.6)">
    <path d="m528.95 1389.6v-247h246.5 246.5v247 247h-246.5-246.5v-247zm481 0v-235h-234.5-234.5v235 235h234.5 234.5v-235zm-380.2 179.07c-15.922-5.0909-28.961-18.146-33.812-33.852-1.9391-6.2782-1.9852-9.5901-1.9852-142.61 0-148.87-0.27062-141.69 5.7695-153.03 3.4732-6.5191 14.286-17.332 20.805-20.805 11.337-6.0402 4.1594-5.7695 153.03-5.7695 133.02 0 136.33 0.046 142.61 1.9852 12.093 3.735 24.828 14.244 30.259 24.97 5.8296 11.512 5.5245 3.1129 5.5245 152.12 0 133.06-0.0525 136.88-1.9641 143.07-4.8804 15.792-18.077 29.008-33.819 33.87-6.2829 1.9406-9.5124 1.984-143.57 1.9315-129.88-0.051-137.45-0.1504-142.85-1.877zm288.38-18.359c6.4369-3.161 11.134-8.006 14.213-14.659l2.1057-4.5508v-139.5-139.5l-2.1057-4.5508c-3.0784-6.6532-7.7758-11.498-14.213-14.659l-5.6816-2.79h-139.5-139.5l-4.5508 2.1056c-6.6532 3.0784-11.498 7.7759-14.659 14.213l-2.7901 5.6816-0.30754 136.5c-0.21773 96.635 0.0139 138 0.79312 141.62 2.1738 10.116 9.2996 18.048 19.347 21.534 4.8843 1.6948 12.731 1.7807 143.17 1.5685l138-0.2246 5.6816-2.7901zm-281.27-14.037c-2.424-1.2797-5.7573-4.2433-7.4073-6.5858l-3-4.259-0.26612-87.414-0.26612-87.414h33.516c18.434 0 33.516 0.1891 33.516 0.4202 0 0.2312-2.4317 3.9503-5.4037 8.2648-7.6321 11.08-9.0891 16.561-8.9878 33.815 0.0689 11.736 0.50303 15.58 2.6838 23.768 9.237 34.682 36.528 60.69 71.19 67.844 10.966 2.2633 29.247 2.4827 39.68 0.4762 34.878-6.7081 62.65-31.754 72.359-65.258 3.7139-12.816 5.0122-26.214 3.6043-37.193-1.4739-11.493-2.7847-14.471-10.105-22.955-3.3111-3.8375-6.0201-7.4736-6.0201-8.0803 0-0.7823 9.8884-1.1029 34.016-1.1029h34.016l-0.26612 87.414-0.26612 87.414-3 4.259c-1.65 2.3425-4.9833 5.3061-7.4073 6.5858l-4.4073 2.3268h-131.69-131.69l-4.4073-2.3268zm119.2-72.66c-15.036-4.0554-26.262-10.977-37.51-23.126-7.462-8.0597-14.443-20.935-17.289-31.887-2.0678-7.9578-2.2611-24.343-0.37668-31.928 3.3842-13.622 10.929-26.96 20.674-36.551 23.791-23.414 56.706-28.475 85.89-13.206 6.0381 3.1591 10.344 6.5153 17.557 13.686 8.1867 8.1379 10.226 10.862 14.223 19 2.5664 5.225 5.3466 12.425 6.1784 16 2.01 8.6394 1.9691 24.648-0.0843 32.936-6.1516 24.831-25.128 45.252-49.874 53.67-10.995 3.74-28.43 4.3629-39.388 1.4072zm95.116-140.13c-5.0334-2.4915-9.8602-7.9763-11.338-12.884-0.63562-2.1108-0.9221-11.072-0.72173-22.576 0.32822-18.845 0.36535-19.126 3.0599-23.195 1.5002-2.2651 4.8752-5.3807 7.5-6.9236l4.7724-2.8052h19c10.45 0 20.249 0.3489 21.775 0.7753 3.3969 0.9491 10.339 7.0779 12.29 10.85 1.1124 2.1511 1.4353 7.4665 1.4353 23.629v20.854l-2.8849 4.549c-2.0552 3.2407-4.4124 5.3101-8.1964 7.1957-5.1705 2.5766-5.8038 2.6468-23.865 2.6461-16.875-7e-4 -18.94-0.1921-22.826-2.1157z"/>
  </g>
</svg>
