<?xml version="1.0" encoding="UTF-8"?>
<svg version="1.1" viewBox="0 0 493 494" xmlns="http://www.w3.org/2000/svg" xmlns:cc="http://creativecommons.org/ns#" xmlns:dc="http://purl.org/dc/elements/1.1/" xmlns:rdf="http://www.w3.org/1999/02/22-rdf-syntax-ns#">
  <metadata>
    <rdf:RDF>
      <cc:Work rdf:about="">
        <dc:format>image/svg+xml</dc:format>
        <dc:type rdf:resource="http://purl.org/dc/dcmitype/StillImage"/>
        <dc:title/>
      </cc:Work>
    </rdf:RDF>
  </metadata>
  <path d="m0 247v-247h246.5 246.5v247 247h-246.5-246.5v-247zm481 0v-235h-234.5-234.5v235 235h234.5 234.5v-235zm-246.5 113.91c-33.642-3.457-63.522-18.023-89.052-43.41-21.069-20.952-45.665-57.027-70.225-103-11.183-20.934-29.179-59.457-29.926-64.062-0.73856-4.5512 1.6694-8.0573 6.4442-9.3833 4.8458-1.3457 63.501-1.3938 68.316-0.0559 5.4677 1.5189 8.2873 5.3136 15.233 20.501 9.7183 21.248 9.6644 21.14 17.1 34.5 14.861 26.702 29.929 45.813 37.416 47.457 6.3715 1.3994 11.214-4.7095 13.149-16.587 2.7049-16.607 2.1556-50.87-1.0094-62.97-2.0596-7.8738-8.4192-13.984-16.733-16.078-2.4108-0.60703-4.6119-1.6996-4.8914-2.428-0.81117-2.1139 3.4085-7.152 8.4939-10.141l4.6846-2.7539 37-0.28865c36.854-0.2875 37.018-0.27958 41.5 2 3.1417 1.5978 5.1037 3.496 6.5 6.2886 1.8824 3.7647 2.0294 6.5588 2.5 47.5 0.49013 42.641 0.54417 43.583 2.7366 47.684 4.95 9.2597 9.9284 9.6823 18.447 1.5661 15.135-14.421 35.308-47.623 47.758-78.603 4.7053-11.708 7.4154-15.723 11.854-17.562 2.0489-0.84868 13.507-1.0929 41.27-0.87971 34.766 0.26699 38.748 0.46674 41.727 2.0933 4.7727 2.6058 5.8476 5.6148 4.4263 12.391-2.7085 12.913-13.062 29.739-42.65 69.311-9.6639 12.925-18.695 25.726-20.07 28.446-3.0606 6.0568-3.2128 11.826-0.43658 16.554 1.1305 1.925 10.939 12.275 21.796 23 25.885 25.57 37.541 40.032 40.685 50.48 2.596 8.6258-0.93096 16.364-8.4842 18.614-2.3248 0.69257-15.53 0.9268-38.06 0.67512-38.697-0.43228-40.166-0.65608-50.673-7.7174-3.3643-2.2611-12.602-11.224-21.854-21.204-17.654-19.042-22.709-23.427-28.2-24.457-10.456-1.9616-17.132 9.2707-19.257 32.399-1.029 11.2-2.1889 14.549-6.0212 17.382-4.8329 3.5736-22.211 4.7208-41.495 2.7392z"/>
</svg>
