<svg width="139.14mm" height="139.42mm" version="1.1" viewBox="0 0 493 493.99997" xmlns="http://www.w3.org/2000/svg" xmlns:cc="http://creativecommons.org/ns#" xmlns:dc="http://purl.org/dc/elements/1.1/" xmlns:rdf="http://www.w3.org/1999/02/22-rdf-syntax-ns#">
  <metadata>
    <rdf:RDF>
      <cc:Work rdf:about="">
        <dc:format>image/svg+xml</dc:format>
        <dc:type rdf:resource="http://purl.org/dc/dcmitype/StillImage"/>
        <dc:title/>
      </cc:Work>
    </rdf:RDF>
  </metadata>
  <g transform="translate(-1250.3 -1944.6)">
    <path fill="#ffffff" d="m1250.3 2191.6v-247h246.5 246.5v247 247h-246.5-246.5v-247zm481 0v-235h-234.5-234.5v235 235h234.5 234.5v-235zm-370 181.46c-8.0131-1.7342-20.916-8.0354-27.226-13.296-10.928-9.1108-17.984-19.933-21.968-33.695-2.2228-7.6779-2.3059-9.2982-2.3059-44.965 0-27.566 0.3464-38.53 1.3586-43 5.3978-23.839 22.592-42.348 46.141-49.668l7.5-2.3316h133.5c147.27 0 138.04-0.3962 152.5 6.5467 18.984 9.117 32.225 26.31 36.105 46.88 1.2416 6.5834 1.4622 14.974 1.1788 44.836l-0.3486 36.737-2.7499 8.2145c-6.5792 19.653-22.268 35.319-42.107 42.046l-8.0784 2.7393-133.5 0.1812c-111.49 0.1514-134.57-0.051-140-1.2255zm82.128-25.873c1.8546-0.7794 5.2807-2.8044 7.6134-4.5 2.3328-1.6956 4.6377-3.0829 5.1222-3.0829s1.1712 1.8157 1.526 4.0348l0.6452 4.0348 10.233-0.2848 10.233-0.2848v-50.5-50.5l-11.25-0.2828-11.25-0.2827v41.546 41.546l-4.5534 2.2122c-4.1696 2.0257-4.7773 2.0866-7.2085 0.722-1.4603-0.8196-2.9664-2.6085-3.3469-3.9752-0.3805-1.3668-0.7367-20.372-0.7915-42.235l-0.1-39.75h-11-11l0.024 43.25c0.025 45.145 0.4419 50.452 4.2865 54.628 4.5592 4.9517 13.896 6.6137 20.817 3.7054zm112.68-1.4459c6.777-4.8256 6.6924-4.2045 6.6924-49.137 0-38.832-0.083-40.644-2.0229-44-2.4924-4.3124-9.4127-8.0081-14.939-7.978-4.798 0.026-10.54 2.5101-16.038 6.9385l-4 3.2217-0.5-21.841-0.5-21.841h-11-11v68 68l11.25 0.2828 11.25 0.2827v-4.6514-4.6515l3.5364 2.6974c8.2482 6.2912 11.6 7.65 18.006 7.3009 4.3164-0.2352 6.9632-0.9848 9.2651-2.6239zm-26.558-15.11-4.25-1.9291v-31.96-31.96l4.464-2.161c3.9259-1.9005 4.793-2.0016 7.1923-0.8392 1.7598 0.8525 3.0346 2.5117 3.5909 4.6735 0.4745 1.8435 0.7254 16.621 0.5577 32.84l-0.3049 29.488-2.3608 1.9103c-2.9092 2.3541-3.5752 2.3494-8.8892-0.063zm104.04 14.619c9.6877-4.7397 13.708-12.298 13.708-25.771v-7.8743h-10.848-10.848l-0.9018 8.6533c-0.8061 7.7355-1.1897 8.8672-3.6164 10.669-2.4198 1.7966-3.152 1.8845-6.7403 0.8094-5.1049-1.5294-5.5129-2.9405-5.531-19.132l-0.014-12.5 19.25-0.2716 19.25-0.2716v-16.853c0-23.295-2.321-29.168-13.742-34.776-5.2672-2.5864-6.7025-2.8276-16.829-2.8276-10.352 0-11.456 0.1966-17 3.0285-4.7166 2.4091-6.5667 4.0928-9.0455 8.2319-1.714 2.8619-3.3965 6.899-3.739 8.9715-0.3426 2.0725-0.6278 16.399-0.6338 31.837-0.013 32.672 0.547 35.963 7.3383 43.151 5.9871 6.3367 12.376 8.4142 24.684 8.027 8.0411-0.253 10.43-0.7384 15.258-3.101zm-24.91-61.093c-0.3234-0.8426-0.4291-5.3493-0.2349-10.015 0.3983-9.571 2.1655-12.595 7.448-12.745 7.6951-0.2187 9.7586 3.4084 9.2204 16.208l-0.3153 7.5-7.7652 0.2923c-6.2387 0.2349-7.8807-0.01-8.353-1.2397zm-217.38 3.9474v-59.5h11.539 11.539l-0.2889-8.75-0.2889-8.75-34.25-0.2631-34.25-0.2632v9.0132 9.0131h11 11v59.5 59.5h12 12v-59.5zm88.672-122.87c-7.1402-2.0092-12.726-6.3826-16.172-12.662l-3-5.4663v-37.5-37.5l3.0589-5.3927c5.8105-10.244 16.534-14.814 32.441-13.826 14.11 0.8764 22.029 5.2413 27.258 15.025 2.1811 4.0805 2.2499 5.143 2.5496 39.372 0.2 22.85-0.067 36.572-0.7636 39.157-1.8983 7.0498-6.9338 13.309-13.33 16.569-5.1533 2.6267-6.9577 2.9839-16.5 3.2658-6.9204 0.2045-12.423-0.1644-15.542-1.0418zm17.783-17.249c4.1717-1.6008 4.5448-4.7509 4.5448-38.379 0-38.352-0.1574-39-9.471-39-1.8191 0-4.3698 0.8602-5.6682 1.9117l-2.3608 1.9116v35.177 35.177l2.3608 1.9117c2.3259 1.8834 7.4292 2.505 10.594 1.2904zm64.565 16.371c-2.4218-1.2375-5.2317-3.3893-6.2441-4.7817-3.2768-4.5066-3.8347-14.006-3.551-60.468l0.2747-45h12 12l0.5 46.287c0.4287 39.684 0.714 46.422 2 47.235 2.5445 1.6075 8.0982 1.0808 11.632-1.1033l3.3681-2.0815v-45.449-45.449l12.019 0.2808 12.019 0.2808 2e-4 55.5 2e-4 55.5-10.953 0.2821-10.953 0.2822-0.6796-4.5322c-0.3738-2.4926-1.0775-4.5321-1.5638-4.5321s-3.0711 1.5712-5.7441 3.4916c-9.8016 7.0417-18.047 8.3858-26.124 4.2584zm-159.05 0.5299c-0.015-0.429 0-14.084 0.027-30.345l0.054-29.565-14.526-43.393c-7.9896-23.866-14.526-43.974-14.526-44.685 0-0.993 3.177-1.2893 13.75-1.2824l13.75 0.01 4.7617 18.241c2.6189 10.033 5.7335 22.628 6.9213 27.991 1.1877 5.3625 2.4675 9.75 2.8439 9.75s1.6327-4.7328 2.7919-10.517c1.1591-5.7845 4.2121-18.384 6.7844-28l4.6768-17.483h13.789 13.789l-14.956 44.724-14.956 44.724 0.085 30.026 0.085 30.026-12.558 0.2799c-6.9071 0.1539-12.571-0.071-12.586-0.5z"/>
  </g>
</svg>
